<svg fill="none" xmlns="http://www.w3.org/2000/svg" viewBox="0 0 182 50">
  <rect x="57" width="40" height="40" rx="20" fill="#F9DB3E"/>
  <path d="M14.865 31c-1.512 0-2.716-.373-3.612-1.12-.877-.747-1.428-1.941-1.652-3.584l-.224-1.708-.028.952a29.813 29.813 0 00-.056 1.4c0 .41.01.7.028.868-.634.317-1.381.56-2.24.728-.858.15-1.708.224-2.548.224-1.288 0-2.296-.29-3.024-.868-.728-.597-1.092-1.39-1.092-2.38 0-1.139.318-2.352.952-3.64a10.513 10.513 0 012.52-3.304c1.139-.97 2.586-2.081 4.34-3.332l-.308-2.128 3.92-1.54c.075.56.159 1.353.252 2.38.094 1.008.178 2.025.252 3.052.13 1.867.261 3.397.392 4.592.112 1.176.373 2.016.784 2.52.43.485 1.176.728 2.24.728L14.865 31zM3.33 22.32c.112.355.83.532 2.156.532 1.307 0 2.52-.103 3.64-.308l-.084-.616c-.168-1.53-.29-2.557-.364-3.08-3.49 1.923-5.273 3.08-5.348 3.472zm18.75-5.46c.243.952.449 1.96.617 3.024.186 1.045.28 1.904.28 2.576 0 .915-.196 1.923-.588 3.024a11.585 11.585 0 01-1.512 2.996c-.616.877-1.26 1.475-1.932 1.792-.56.261-1.223.448-1.988.56-.747.112-1.634.168-2.66.168-.112 0-.206-.187-.28-.56-.094-.392-.14-.915-.14-1.568 0-1.325.14-2.324.42-2.996.26-.69.56-1.036.896-1.036 1.549 0 2.697-.056 3.444-.168.746-.112 1.204-.29 1.372-.532-.075-.616-.691-2.343-1.848-5.18l3.92-2.1zm-4.255 21.7c-.56-.28-1.195-.69-1.904-1.232-.71-.541-1.242-1.017-1.596-1.428l2.38-3.08c.354.41.886.887 1.596 1.428.709.541 1.344.952 1.904 1.232l-2.38 3.08zm8.767-7.224l-1.568-21.252 4.76-1.484-.56 22.204-2.632.532zM43.556 31c-.578 2.427-1.792 4.21-3.64 5.348-1.12.672-2.538 1.232-4.256 1.68-1.698.448-3.556.737-5.572.868-.41-.467-.802-1.083-1.176-1.848-.392-.747-.886-1.82-1.484-3.22 4.387-.28 7.738-.71 10.052-1.288 2.315-.579 3.678-1.26 4.088-2.044v-.028a34.636 34.636 0 01-5.068.364c-1.418 0-2.492-.364-3.22-1.092-.728-.747-1.092-1.783-1.092-3.108 0-1.325.243-2.716.728-4.172.486-1.475 1.167-2.707 2.044-3.696.896-.99 1.895-1.484 2.996-1.484.971 0 1.867.308 2.688.924.822.597 1.512 1.465 2.072 2.604s.934 2.483 1.12 4.032h1.82L44.76 31h-1.204zm-8.988-6.972c0 .71.794 1.064 2.38 1.064 1.42 0 2.66-.037 3.724-.112-.728-1.904-1.94-2.856-3.64-2.856-.429 0-.84.103-1.232.308-.373.187-.672.43-.896.728-.224.299-.336.588-.336.868zM50.694 15.6c.504 0 1.092.112 1.764.336.672.205 1.577.532 2.716.98a76.41 76.41 0 004.648 1.652 37.98 37.98 0 004.704 1.064l-2.044 4.564-1.904-.252c-.504.224-1.008.504-1.512.84a56.46 56.46 0 00-1.876 1.372c-1.288.99-2.474 1.81-3.556 2.464-1.064.653-2.39 1.213-3.976 1.68-1.587.467-3.407.7-5.46.7-.112 0-.206-.187-.28-.56-.094-.392-.14-.915-.14-1.568 0-1.325.14-2.324.42-2.996.26-.69.56-1.036.896-1.036 2.594 0 4.75-.13 6.468-.392 1.736-.28 3.677-.821 5.824-1.624-1.14-.28-2.707-.765-4.704-1.456-.784-.299-1.4-.513-1.848-.644-.43-.13-.794-.196-1.092-.196-.336 0-.654.14-.952.42-.28.28-.635.812-1.064 1.596L45.99 21.48c.634-1.512 1.194-2.679 1.68-3.5.485-.84.96-1.447 1.428-1.82.466-.373.998-.56 1.596-.56zm1.568-2.352c-.56-.28-1.195-.69-1.904-1.232-.71-.541-1.242-1.017-1.596-1.428l2.38-3.08c.354.41.886.887 1.596 1.428.709.541 1.344.952 1.904 1.232l-2.38 3.08zM86.03 9.44c.13 1.101.196 1.997.196 2.688 0 1.475-.214 2.828-.644 4.06-.41 1.213-.961 2.175-1.652 2.884-.69.71-1.41 1.064-2.156 1.064-.746 0-1.4-.15-1.96-.448-.541-.299-.942-.765-1.204-1.4-.634 1.232-1.54 1.848-2.716 1.848-.205 0-.392-.028-.56-.084.224 2.09.336 4.573.336 7.448 0 1.325-.028 2.576-.084 3.752l-2.408.336c-.28-3.808-.728-7.299-1.344-10.472a66.361 66.361 0 00-2.464-9.184l4.172-2.492c.224 1.307.458 2.315.7 3.024.262.69.542 1.167.84 1.428.299.261.654.392 1.064.392.523 0 .943-.159 1.26-.476.318-.336.523-.896.616-1.68l.14-1.204 1.988-.168v.896c0 1.755.7 2.632 2.1 2.632.336 0 .626-.112.868-.336.262-.224.448-.56.56-1.008-.037-.41-.29-1.223-.756-2.436L86.03 9.44zm15.72 17.696c-.56-.28-1.194-.69-1.904-1.232-.71-.541-1.241-1.017-1.596-1.428l2.38-3.08c.355.41.887.887 1.596 1.428.71.541 1.344.952 1.904 1.232l-2.38 3.08zm8.792-9.24c.336 1.792.57 3.304.7 4.536.15 1.232.224 2.445.224 3.64 0 1.27-.158 2.51-.476 3.724-.317 1.213-.746 2.277-1.288 3.192-.522.915-1.082 1.596-1.68 2.044-.933.71-2.202 1.288-3.808 1.736a18.144 18.144 0 01-4.956.672c-2.52 0-4.433-.588-5.74-1.764-1.306-1.157-1.96-2.865-1.96-5.124 0-2.296.654-5.348 1.96-9.156l2.156.644c-.653 2.427-.98 4.265-.98 5.516 0 1.176.458 2.09 1.372 2.744.915.653 2.324.98 4.228.98 1.55 0 3.127-.187 4.732-.56 1.606-.373 2.744-.84 3.416-1.4.168-.168.252-.41.252-.728 0-.597-.214-1.69-.644-3.276a58.868 58.868 0 00-1.596-5.012l4.088-2.408zM120.722 31c-1.942 0-3.426-.541-4.452-1.624-1.008-1.101-1.578-2.828-1.708-5.18l-.252-3.556c-.336-5.693-.607-9.156-.812-10.388l4.76-1.652V10c0 3.565-.047 7.15-.14 10.752-.019 1.475.242 2.53.784 3.164.541.616 1.446.924 2.716.924l-.896 6.16zm17.136 0c-1.158 0-2.082-.28-2.772-.84-.672-.56-1.139-1.475-1.4-2.744-.299 1.213-.738 2.184-1.316 2.912-.56.728-1.12 1.092-1.68 1.092-.784 0-1.606-.14-2.464-.42a8.828 8.828 0 01-2.324-1.204c-.672-.523-1.148-1.092-1.428-1.708-.598 1.045-1.251 1.792-1.96 2.24-.691.448-1.475.672-2.352.672-.112 0-.206-.187-.28-.56-.094-.392-.14-.915-.14-1.568 0-1.325.14-2.324.42-2.996.261-.69.56-1.036.896-1.036.653 0 1.185-.065 1.596-.196.41-.15.774-.401 1.092-.756.336-.373.681-.924 1.036-1.652.952-1.923 1.95-3.276 2.996-4.06 1.064-.784 2.408-1.176 4.032-1.176.858 0 1.53.233 2.016.7.485.448.821 1.176 1.008 2.184.261 1.4.541 2.445.84 3.136.298.69.672 1.167 1.12 1.428.466.261 1.12.392 1.96.392l-.896 6.16zm-11.368-7.504c.448.448 1.241.868 2.38 1.26 1.138.373 2.212.56 3.22.56.093-.019.149-.093.168-.224.037-.13.056-.336.056-.616-.038-.933-.15-1.577-.336-1.932-.168-.373-.486-.56-.952-.56-1.251 0-2.212.121-2.884.364a3.454 3.454 0 00-1.652 1.148zm18.587-6.636c.243.952.448 1.96.616 3.024.187 1.045.28 1.904.28 2.576 0 .915-.196 1.923-.588 3.024a11.56 11.56 0 01-1.512 2.996c-.616.877-1.26 1.475-1.932 1.792-.56.261-1.222.448-1.988.56-.746.112-1.633.168-2.66.168-.112 0-.205-.187-.28-.56-.093-.392-.14-.915-.14-1.568 0-1.325.14-2.324.42-2.996.262-.69.56-1.036.896-1.036 1.55 0 2.698-.056 3.444-.168.747-.112 1.204-.29 1.372-.532-.074-.616-.69-2.343-1.848-5.18l3.92-2.1zm-5.768-6.496c.318.373.738.784 1.26 1.232.542.448 1.055.821 1.54 1.12l1.68-2.352c.336.41.831.868 1.484 1.372a12.79 12.79 0 001.876 1.148l-2.24 2.94a9.282 9.282 0 01-1.596-1.008c-.541-.43-1.008-.85-1.4-1.26l-1.624 2.268a12.19 12.19 0 01-1.764-1.148c-.616-.485-1.101-.943-1.456-1.372l2.24-2.94zm13.606 8.708c.803 3.173 1.204 5.721 1.204 7.644 0 2.035-.41 3.855-1.232 5.46a9.084 9.084 0 01-3.528 3.836c-1.045.653-2.296 1.223-3.752 1.708a22.508 22.508 0 01-4.396 1.064 10.534 10.534 0 01-1.288-1.764 61.79 61.79 0 01-1.652-2.884c4.051-.597 7.168-1.325 9.352-2.184 2.203-.859 3.463-1.764 3.78-2.716-.056-.485-.326-1.437-.812-2.856a93.02 93.02 0 00-1.764-4.9l4.088-2.408zM163.38 31c-1.941 0-3.425-.541-4.452-1.624-1.008-1.101-1.577-2.828-1.708-5.18l-.252-3.556c-.336-5.693-.607-9.156-.812-10.388l4.76-1.652V10c0 3.565-.047 7.15-.14 10.752-.019 1.475.243 2.53.784 3.164.541.616 1.447.924 2.716.924L163.38 31zm7.224-14.14c.243.952.448 1.96.616 3.024.187 1.045.28 1.904.28 2.576 0 .915-.196 1.923-.588 3.024a11.56 11.56 0 01-1.512 2.996c-.616.877-1.26 1.475-1.932 1.792-.56.261-1.222.448-1.988.56-.746.112-1.633.168-2.66.168-.112 0-.205-.187-.28-.56-.093-.392-.14-.915-.14-1.568 0-1.325.14-2.324.42-2.996.262-.69.56-1.036.896-1.036 1.55 0 2.698-.056 3.444-.168.747-.112 1.204-.29 1.372-.532-.074-.616-.69-2.343-1.848-5.18l3.92-2.1zm-8.26 15.96c.318.373.747.784 1.288 1.232.523.448 1.027.821 1.512 1.12l1.68-2.352c.336.41.831.859 1.484 1.344.672.504 1.298.896 1.876 1.176l-2.24 2.94a9.282 9.282 0 01-1.596-1.008c-.541-.43-1.008-.85-1.4-1.26l-1.624 2.268c-.541-.28-1.12-.663-1.736-1.148-.634-.485-1.129-.943-1.484-1.372l2.24-2.94zm3.5 10.22c-.448-.224-.952-.57-1.512-1.036-.56-.467-.942-.868-1.148-1.204l1.96-2.66c.262.336.682.71 1.26 1.12.579.43 1.092.756 1.54.98l-2.1 2.8zm9.272-11.704l-1.568-17.948 4.76-1.484-.56 18.9-2.632.532zm6.132-22.54c-.728.43-1.578.756-2.548.98-.971.224-1.914.336-2.828.336-1.531 0-2.838-.29-3.92-.868l-.924 2.38-1.68-1.26 1.456-3.108c.28-.616.569-1.036.868-1.26.28-.243.606-.364.98-.364.28 0 .625.075 1.036.224.522.15 1.008.27 1.456.364.466.075 1.073.112 1.82.112.653 0 1.39-.065 2.212-.196a11.44 11.44 0 002.24-.616l-.168 3.276z" fill="#000"/>
</svg>
