<svg fill="none" xmlns="http://www.w3.org/2000/svg" viewBox="0 0 280 144">
  <path d="M173.68 46.14c1.013.92 1.76 1.627 2.24 2.12.48.493.853 1 1.12 1.52.28.507.42 1.06.42 1.66 0 .813-.187 1.607-.56 2.38-.36.76-.813 1.313-1.36 1.66-.307.2-.68.353-1.12.46a5.49 5.49 0 01-1.34.16c-.92 0-1.62-.24-2.1-.72-.48-.493-.72-1.14-.72-1.94 0-.64.153-1.353.46-2.14.32-.8.84-1.727 1.56-2.78l-1.02-.94 1.32-2.44 1.1 1zm-1.8 5.7c0 .733.573 1.1 1.72 1.1.613 0 1.173-.06 1.68-.18.507-.133.8-.28.88-.44-.04-.28-.227-.587-.56-.92-.32-.333-.867-.82-1.64-1.46l-.84-.72c-.827 1.187-1.24 2.06-1.24 2.62zm10.49-3.1c.547 2.12.82 3.753.82 4.9 0 1.213-.26 2.327-.78 3.34a6.124 6.124 0 01-2.24 2.46c-.706.467-1.573.88-2.6 1.24a14.378 14.378 0 01-3.12.76 3.107 3.107 0 01-.62-.72c-.2-.307-.453-.74-.76-1.3l-.26-.44c2.734-.373 4.847-.913 6.34-1.62 1.494-.693 2.36-1.433 2.6-2.22-.026-.373-.186-1.04-.48-2a60.703 60.703 0 00-1.04-3.12l2.14-1.28zm7.369 7.26c-1.266 0-2.22-.353-2.86-1.06-.64-.72-.993-1.853-1.06-3.4l-.12-2.5c-.24-4.773-.38-7.407-.42-7.9l2.46-.84v.9l-.04 5.32-.02 3.44c0 1.013.2 1.753.6 2.22.4.467 1.047.7 1.94.7l-.48 3.12zm4.133-8.56c.16.667.3 1.367.42 2.1.133.733.2 1.293.2 1.68 0 .507-.107 1.06-.32 1.66a6.43 6.43 0 01-.8 1.6c-.334.48-.687.813-1.06 1-.707.347-1.7.52-2.98.52-.067 0-.12-.093-.16-.28-.054-.187-.08-.44-.08-.76 0-.627.073-1.127.22-1.5.146-.387.313-.58.5-.58 1.866 0 2.906-.18 3.12-.54-.04-.32-.174-.847-.4-1.58a34.236 34.236 0 00-.74-2.14l2.08-1.18zm-3.8 13.72a8.453 8.453 0 01-1.12-.74 8.431 8.431 0 01-.98-.86l1.4-1.8c.253.267.58.553.98.86.4.307.773.553 1.12.74l-1.4 1.8zm9.321-12.42c.56 2.093.84 3.887.84 5.38 0 2.027-.513 3.66-1.54 4.9-1.027 1.253-2.487 2.067-4.38 2.44a4.536 4.536 0 01-.66-.82c-.213-.347-.52-.86-.92-1.54 1.867-.44 3.3-.96 4.3-1.56 1.013-.587 1.607-1.207 1.78-1.86-.027-.547-.193-1.347-.5-2.4a38.506 38.506 0 00-1.06-3.26l2.14-1.28zm6.949-3.7c.6.533 1.386 1.187 2.36 1.96.706.56 1.226 1 1.56 1.32.346.307.62.653.82 1.04.2.387.3.833.3 1.34 0 .773-.18 1.58-.54 2.42-.36.827-.8 1.44-1.32 1.84-.547.427-1.26.773-2.14 1.04-.867.267-1.74.4-2.62.4-1.734 0-2.6-.893-2.6-2.68 0-.613.046-1.387.14-2.32l1.12-.06V52c0 .44.126.767.38.98.266.2.72.3 1.36.3.706 0 1.426-.08 2.16-.24.746-.173 1.373-.38 1.88-.62.52-.253.82-.487.9-.7-.014-.24-.18-.493-.5-.76-.32-.28-.834-.66-1.54-1.14-1.28-.88-2.247-1.633-2.9-2.26l1.18-2.52zM1.42 105.028l.028-.392 1.456-.196c.13-.019.243-.14.336-.364L9.288 85.4h1.848l6.44 19.068 1.932.112c0 .019-.01.159-.028.42l-5.6.028c0-.168.01-.299.028-.392l1.456-.196c.15-.019.224-.131.224-.336l-1.54-4.564H5.312l-1.484 4.872 3.248.168c0 .019-.01.159-.028.42l-5.628.028zm8.064-19.096L5.48 98.98h8.372L9.484 85.932zm22.327-.112l.028-.42h5.992c4.032 0 6.048 1.577 6.048 4.732 0 1.213-.803 2.539-2.408 3.976 2.37.579 3.556 2.277 3.556 5.096 0 2.203-.56 3.724-1.68 4.564-1.101.821-2.8 1.232-5.096 1.232h-.812l-5.628.028.028-.392 1.456-.196c.187-.019.299-.14.336-.364V86.38c-.037-.243-.15-.373-.336-.392l-1.484-.168zm7 8.456h-3.276v10.304h2.576c3.341 0 5.012-1.755 5.012-5.264 0-1.792-.364-3.08-1.092-3.864-.71-.784-1.783-1.176-3.22-1.176zm.14-.42c.69 0 1.288.037 1.792.112.821-1.288 1.232-2.51 1.232-3.668 0-2.987-1.428-4.48-4.284-4.48h-2.156v8.036h3.416zm19.092 1.4c0-3.08.784-5.535 2.352-7.364 1.587-1.83 3.556-2.744 5.908-2.744 5.507 0 8.26 3.37 8.26 10.108 0 3.099-.784 5.544-2.352 7.336-1.568 1.773-3.537 2.66-5.908 2.66-5.506 0-8.26-3.332-8.26-9.996zm1.904-.056c0 6.328 2.12 9.492 6.356 9.492 1.83 0 3.342-.84 4.536-2.52 1.214-1.68 1.82-4.004 1.82-6.972 0-6.328-2.118-9.492-6.356-9.492-1.81 0-3.322.85-4.536 2.548-1.213 1.699-1.82 4.013-1.82 6.944zm33.442-9.8c0 .019.01.159.028.42l-1.904.168v10.584c0 3.248.57 5.404 1.708 6.468.541.523 1.092.887 1.652 1.092.56.187 1.213.28 1.96.28.765 0 1.456-.103 2.072-.308.616-.205 1.213-.579 1.792-1.12 1.232-1.12 1.848-3.257 1.848-6.412V86.436c-.037-.243-.149-.373-.336-.392l-2.016-.196a2.583 2.583 0 01-.028-.42l5.32-.028c0 .019.009.159.028.42l-2.324.252V96.6c0 5.675-2.119 8.512-6.356 8.512-1.027 0-1.932-.103-2.716-.308-.765-.224-1.512-.625-2.24-1.204-1.512-1.176-2.268-3.509-2.268-7V86.352c-.075-.224-.187-.345-.336-.364l-1.456-.14a2.618 2.618 0 01-.028-.42l5.6-.028zm30.654.56h-4.816l-.448 3.696-.532-.224.28-3.472h-.028l.056-.224.028-.336.056.028V85.4h12.712l.364 4.032-.56.224-.448-3.696h-4.9v18.508l2.044.112c0 .019-.01.159-.028.42l-5.6.028c0-.168.009-.299.028-.392l1.456-.196c.186-.019.298-.14.336-.364V85.96z" fill="#9DA7B1"/>
  <path d="M145.064 85.82l.028-.42h3.696l6.692 14.196 6.58-14.196h3.696c0 .037.009.103.028.196a.44.44 0 010 .224l-1.484.168c-.187.019-.299.14-.336.364v18.116l2.072.112c0 .019-.009.159-.028.42l-5.628.028.028-.392 1.456-.196c.187-.019.299-.131.336-.336V86.408l-6.384 13.804-.56 1.12h-.644l-7.084-14.952v18.032l3.192.168c0 .019-.009.159-.028.42l-5.628.028.028-.392 1.456-.196c.187-.019.299-.14.336-.364V86.352c-.037-.224-.149-.345-.336-.364l-1.484-.168zm33.699 9.436c0-3.08.784-5.535 2.352-7.364 1.586-1.83 3.556-2.744 5.908-2.744 5.506 0 8.26 3.37 8.26 10.108 0 3.099-.784 5.544-2.352 7.336-1.568 1.773-3.538 2.66-5.908 2.66-5.507 0-8.26-3.332-8.26-9.996zm1.904-.056c0 6.328 2.118 9.492 6.356 9.492 1.829 0 3.341-.84 4.536-2.52 1.213-1.68 1.82-4.004 1.82-6.972 0-6.328-2.119-9.492-6.356-9.492-1.811 0-3.323.85-4.536 2.548-1.214 1.699-1.82 4.013-1.82 6.944zm33.135-9.8c0 .019.009.159.028.42l-1.932.168v18.452h7.728l.56-4.48.532.14-.42 4.9h-6.496l-5.628.028.028-.392 1.456-.196c.186-.019.298-.14.336-.364V86.352c-.038-.224-.15-.345-.336-.364l-1.456-.14-.028-.42 5.628-.028zm34.013 0c0 .019.009.159.028.42l-2.38.224-6.804 7.924 8.288 10.528 1.316.084c0 .019-.009.159-.028.42l-3.024.028-8.092-10.22-.028-.028v9.688l1.904.112c0 .019-.009.159-.028.42l-5.6.028c0-.168.009-.299.028-.392l1.456-.196c.187-.019.299-.14.336-.364V86.352c-.075-.224-.187-.345-.336-.364l-1.456-.14a2.583 2.583 0 01-.028-.42l5.6-.028c0 .019.009.159.028.42l-1.904.168v8.764l.056-.028 6.86-8.204c.149-.299.093-.476-.168-.532l-1.456-.14a2.583 2.583 0 01-.028-.42l5.46-.028zm-10.724 9.352v.028-.028zm22.923 10.276l.028-.392 1.456-.196c.131-.019.243-.14.336-.364l6.048-18.676h1.848l6.44 19.068 1.932.112c0 .019-.009.159-.028.42l-5.6.028c0-.168.009-.299.028-.392l1.456-.196c.149-.019.224-.131.224-.336l-1.54-4.564h-8.736l-1.484 4.872 3.248.168c0 .019-.009.159-.028.42l-5.628.028zm8.064-19.096l-4.004 13.048h8.372l-4.368-13.048z" fill="#212529"/>
  <path d="M83.904 62c-3.547 0-6.216-.99-8.008-2.968-1.792-2.016-2.781-5.19-2.968-9.52l-.336-7c-.672-13.365-1.064-20.739-1.176-22.12l6.888-2.352v2.52l-.112 14.896-.056 9.632c0 2.837.56 4.91 1.68 6.216 1.12 1.307 2.93 1.96 5.432 1.96L83.904 62zm31.563 0c-1.904 0-3.696-.317-5.376-.952-1.643-.635-3.491-1.755-5.544-3.36-2.016-1.643-4.48-3.976-7.392-7a17.751 17.751 0 01-2.072 5.712c-1.008 1.755-2.147 2.987-3.416 3.696-1.083.635-2.427 1.12-4.032 1.456a25.985 25.985 0 01-4.872.448c-.187 0-.336-.261-.448-.784-.15-.523-.224-1.232-.224-2.128 0-1.755.205-3.155.616-4.2.41-1.083.877-1.624 1.4-1.624 2.576 0 4.685-.205 6.328-.616 1.68-.448 2.706-1.064 3.08-1.848-.262-1.307-1.195-2.763-2.8-4.368-1.568-1.643-4.462-3.957-8.68-6.944l2.464-9.464 27.832-12.096.056 6.944-25.2 10.472c3.882 2.464 7.877 5.376 11.984 8.736 3.21 2.613 5.749 4.555 7.616 5.824 1.866 1.27 3.546 2.147 5.04 2.632 1.493.485 3.154.728 4.984.728L115.467 62zm17.191 0c-2.427 0-4.387-.485-5.88-1.456-1.456-1.008-2.502-2.595-3.136-4.76-.784 2.427-1.755 4.013-2.912 4.76-1.419.97-3.547 1.456-6.384 1.456-.187 0-.336-.261-.448-.784-.15-.523-.224-1.232-.224-2.128 0-1.755.205-3.155.616-4.2.41-1.083.877-1.624 1.4-1.624 1.792 0 3.21-.15 4.256-.448 1.045-.336 1.642-.896 1.792-1.68.037-.261.056-.84.056-1.736 0-.97-.019-1.699-.056-2.184l-.896-26.992 6.72-2.184-.392 27.216c-.038 2.875.485 4.928 1.568 6.16 1.082 1.232 2.837 1.848 5.264 1.848L132.658 62zm19.72-24.36c1.531 0 2.763.392 3.696 1.176.933.747 1.661 1.941 2.184 3.584.336 1.12.616 2.483.84 4.088.224 1.568.336 2.987.336 4.256 0 1.717-.355 3.472-1.064 5.264-.672 1.755-1.549 3.23-2.632 4.424-1.045 1.157-2.035 1.736-2.968 1.736-1.531 0-3.155-.261-4.872-.784-1.68-.56-3.192-1.307-4.536-2.24-1.307-.97-2.184-2.053-2.632-3.248-1.307 2.277-2.688 3.864-4.144 4.76-1.419.896-3.099 1.344-5.04 1.344-.187 0-.336-.261-.448-.784-.149-.523-.224-1.232-.224-2.128 0-1.755.205-3.155.616-4.2.411-1.083.877-1.624 1.4-1.624 1.381 0 2.52-.15 3.416-.448.896-.336 1.717-.915 2.464-1.736.747-.859 1.531-2.072 2.352-3.64 1.344-2.613 2.539-4.61 3.584-5.992 1.045-1.381 2.147-2.352 3.304-2.912 1.195-.597 2.651-.896 4.368-.896zm-8.68 11.536c.784 1.195 2.315 2.24 4.592 3.136 2.315.859 4.592 1.288 6.832 1.288.299 0 .448-.243.448-.728-.037-.672-.187-1.661-.448-2.968s-.541-2.333-.84-3.08c-.523-1.381-1.549-2.072-3.08-2.072-1.829 0-3.285.317-4.368.952-1.083.635-2.128 1.792-3.136 3.472z" fill="#000"/>
</svg>
