<svg fill="none" xmlns="http://www.w3.org/2000/svg" viewBox="0 0 40 40">
  <g clip-path="url(#JVO3KzrvTl37a)">
    <rect width="40" height="40" rx="20" fill="#F9DB3E"/>
    <path d="M27.963 18.44c.13 1.101.196 1.997.196 2.688 0 1.475-.215 2.828-.644 4.06-.41 1.213-.961 2.175-1.652 2.884-.69.71-1.41 1.064-2.156 1.064-.747 0-1.4-.15-1.96-.448-.541-.299-.943-.765-1.204-1.4-.635 1.232-1.54 1.848-2.716 1.848-.205 0-.392-.028-.56-.084.224 2.09.336 4.573.336 7.448 0 1.325-.028 2.576-.084 3.752l-2.408.336c-.28-3.808-.728-7.299-1.344-10.472a66.361 66.361 0 00-2.464-9.184l4.172-2.492c.224 1.307.457 2.315.7 3.024.261.69.541 1.167.84 1.428.299.261.653.392 1.064.392.523 0 .943-.159 1.26-.476.317-.336.523-.896.616-1.68l.14-1.204 1.988-.168v.896c0 1.755.7 2.632 2.1 2.632.336 0 .625-.112.868-.336.261-.224.448-.56.56-1.008-.037-.41-.29-1.223-.756-2.436l3.108-1.064z" fill="#000"/>
  </g>
  <defs>
    <clipPath id="JVO3KzrvTl37a">
      <rect width="40" height="40" rx="20" fill="#fff"/>
    </clipPath>
  </defs>
</svg>
