<svg fill="none" xmlns="http://www.w3.org/2000/svg" viewBox="0 0 223 130">
  <path d="M8.472 78.08l.032-.48H22.2l-.032.096.416 4.512-.64.256-.512-4.224h-8.704v10.336h7.648c.107.021.203 0 .288-.064a.434.434 0 00.128-.32l.128-2.208.512-.064v5.472c-.021 0-.181.01-.48.032l-.128-2.208h-8.096v10.176l2.208.128c0 .021-.01.181-.032.48l-6.432.032.032-.448 1.664-.224c.213-.021.341-.16.384-.416V78.688c-.043-.256-.17-.395-.384-.416l-1.696-.192zm20.83 21.952l.031-.448 1.664-.224c.15-.021.278-.16.384-.416L38.293 77.6h2.112l7.36 21.792 2.208.128c0 .021-.01.181-.032.48l-6.4.032c0-.192.01-.341.032-.448l1.664-.224c.17-.021.256-.15.256-.384l-1.76-5.216H33.75l-1.696 5.568 3.712.192c0 .021-.01.181-.032.48l-6.432.032zm9.215-21.824L33.941 93.12h9.568l-4.992-14.912zm28.922-.16c-2.411 0-4.32 1.003-5.728 3.008-1.408 2.005-2.112 4.907-2.112 8.704 0 4.608 1.056 7.584 3.168 8.928.64.405 1.226.672 1.76.8.554.107 1.162.16 1.823.16 2.113 0 4.32-.256 6.625-.768l.096.448c-.363.128-1.334.299-2.912.512-1.558.192-2.827.288-3.809.288-.98 0-1.834-.064-2.56-.192-.725-.15-1.493-.448-2.303-.896a6.88 6.88 0 01-2.08-1.76c-.555-.747-1.024-1.76-1.408-3.04-.385-1.28-.577-2.773-.577-4.48 0-3.776.864-6.72 2.593-8.832 1.813-2.219 4.287-3.328 7.424-3.328.96 0 1.994.096 3.104.288 1.13.17 1.93.341 2.4.512l.383 4.608-.607.224-.416-3.424c-1.728-1.173-3.35-1.76-4.864-1.76zm15.312 21.984l.032-.448 1.664-.224c.214-.021.342-.16.384-.416h.032V78.72h-.032c-.042-.277-.17-.427-.384-.448l-1.664-.16-.032-.48 6.432-.032c0 .021.01.181.032.48l-2.176.192v21.12l2.176.128c0 .021-.01.181-.032.48l-6.432.032zM105.286 77.6c0 .021.01.181.032.48l-2.208.192V99.36h8.832l.64-5.12.608.16-.48 5.6h-7.424l-6.432.032.032-.448 1.664-.224c.213-.021.341-.16.384-.416V78.688c-.043-.256-.171-.395-.384-.416l-1.664-.16-.032-.48 6.432-.032zm16.92 22.432l.032-.448 1.664-.224c.214-.021.342-.16.384-.416h.032V78.72h-.032c-.042-.277-.17-.427-.384-.448l-1.664-.16-.032-.48 6.432-.032c0 .021.011.181.032.48l-2.176.192v21.12l2.176.128c0 .021-.01.181-.032.48l-6.432.032zm21.329-21.792h-5.504l-.512 4.224-.608-.256.32-3.968h-.032l.064-.256.032-.384.064.032V77.6h14.528l.416 4.608-.64.256-.512-4.224h-5.6v21.152l2.336.128c0 .021-.01.181-.032.48l-6.4.032c0-.192.011-.341.032-.448l1.664-.224c.214-.021.342-.16.384-.416V78.24zm17.751 21.792l.032-.448 1.664-.224c.214-.021.342-.16.384-.416h.032V78.72h-.032c-.042-.277-.17-.427-.384-.448l-1.664-.16-.032-.48 6.432-.032c0 .021.011.181.032.48l-2.176.192v21.12l2.176.128c0 .021-.01.181-.032.48l-6.432.032zm15.975-21.952l.032-.48h13.696l-.032.096.416 4.512-.64.256-.512-4.224h-8.704v10.336h7.648c.106.021.202 0 .288-.064a.435.435 0 00.128-.32l.128-2.208.512-.064v5.472c-.022 0-.182.01-.48.032l-.128-2.208h-8.096V99.36h9.568l.608-5.12.608.16-.48 5.6h-8.128l-6.432.032.032-.448 1.664-.224c.213-.021.341-.16.384-.416V78.688c-.043-.256-.171-.395-.384-.416l-1.696-.192zm30.496 21.312c1.579 0 2.966-.459 4.16-1.376 1.195-.939 1.792-2.357 1.792-4.256 0-.853-.213-1.579-.64-2.176a3.874 3.874 0 00-1.632-1.408 13.19 13.19 0 00-2.24-.864 109.68 109.68 0 01-2.432-.8 13.449 13.449 0 01-2.24-.992 4.524 4.524 0 01-1.664-1.632c-.405-.704-.608-1.547-.608-2.528 0-1.707.587-3.104 1.76-4.192 1.174-1.088 2.742-1.632 4.704-1.632 1.963 0 3.84.224 5.632.672l.352 4-.608.256-.32-2.528c-1.578-1.173-3.061-1.76-4.448-1.76-1.386 0-2.549.427-3.488 1.28-.938.832-1.408 2.09-1.408 3.776 0 .981.395 1.76 1.184 2.336.79.576 1.739 1.024 2.848 1.344 1.131.32 2.251.683 3.36 1.088a6.523 6.523 0 012.88 2.048c.79.96 1.184 2.208 1.184 3.744 0 2.07-.736 3.627-2.208 4.672-1.472 1.045-3.413 1.568-5.824 1.568-2.41 0-4.501-.65-6.272-1.952l.032-3.392.608-.16.064 1.824c.576.81 1.366 1.525 2.368 2.144 1.003.597 2.038.896 3.104.896z" fill="#6C757D"/>
  <path d="M58.32 47.392c.576 2.304 1.08 4.8 1.512 7.488.48 2.64.72 4.68.72 6.12 0 1.776-.384 3.696-1.152 5.76a22.537 22.537 0 01-3.024 5.616c-1.248 1.632-2.568 2.76-3.96 3.384-2.544 1.296-6.384 2.352-11.52 3.168a103.572 103.572 0 01-15.48 1.152c-7.536 0-12.912-1.2-16.128-3.6-3.168-2.4-4.752-5.904-4.752-10.512 0-3.888 1.128-9.024 3.384-15.408l3.96 1.368a46.086 46.086 0 00-1.08 4.608c-.24 1.584-.36 2.88-.36 3.888 0 2.64 1.272 4.704 3.816 6.192 2.592 1.488 6.888 2.232 12.888 2.232 6.624 0 12.6-.408 17.928-1.224 5.328-.816 8.616-1.776 9.864-2.88-.144-1.056-.648-2.904-1.512-5.544a117.977 117.977 0 00-2.592-7.632l7.488-4.176zm-33.264-8.424c.72.864 1.728 1.824 3.024 2.88a48.873 48.873 0 003.816 2.736l-4.68 6.12c-1.296-.72-2.616-1.608-3.96-2.664-1.296-1.104-2.304-2.088-3.024-2.952l4.824-6.12zm13.68 11.736c-1.296-.72-2.616-1.608-3.96-2.664-1.296-1.104-2.304-2.088-3.024-2.952l4.68-6.12c.672.864 1.704 1.824 3.096 2.88a38.077 38.077 0 004.104 2.736l-4.896 6.12zM84.117 79c-4.56 0-7.992-1.272-10.296-3.816-2.304-2.592-3.576-6.672-3.816-12.24l-.432-9c-.864-17.184-1.368-26.664-1.512-28.44l8.856-3.024v3.24l-.144 19.152-.072 12.384c0 3.648.72 6.312 2.16 7.992 1.44 1.68 3.768 2.52 6.984 2.52L84.117 79zm15.885-30.816c.576 2.4 1.08 4.92 1.512 7.56.48 2.64.72 4.656.72 6.048 0 1.824-.384 3.816-1.152 5.976-.72 2.112-1.68 4.032-2.88 5.76-1.2 1.728-2.472 2.928-3.816 3.6C91.842 78.376 87.93 79 82.65 79c-.24 0-.432-.336-.576-1.008-.192-.672-.288-1.584-.288-2.736 0-2.256.264-4.056.792-5.4.528-1.392 1.128-2.088 1.8-2.088 3.984 0 6.912-.168 8.784-.504 1.92-.336 3.072-.816 3.456-1.44-.144-1.2-.624-3.096-1.44-5.688a120.96 120.96 0 00-2.664-7.704l7.488-4.248zm-3.888-4.104c-1.248-.672-2.592-1.56-4.032-2.664s-2.616-2.136-3.528-3.096l5.04-6.48c.912.96 2.088 1.992 3.528 3.096s2.784 1.992 4.032 2.664l-5.04 6.48zM125.745 79c-4.56 0-7.992-1.272-10.296-3.816-2.304-2.592-3.576-6.672-3.816-12.24l-.432-9c-.864-17.184-1.368-26.664-1.512-28.44l8.856-3.024v3.24l-.144 19.152-.072 12.384c0 3.648.72 6.312 2.16 7.992 1.44 1.68 3.768 2.52 6.984 2.52L125.745 79zm40.581 0c-2.448 0-4.752-.408-6.912-1.224-2.112-.816-4.488-2.256-7.128-4.32-2.592-2.112-5.76-5.112-9.504-9a22.82 22.82 0 01-2.664 7.344c-1.296 2.256-2.76 3.84-4.392 4.752-1.392.816-3.12 1.44-5.184 1.872a33.412 33.412 0 01-6.264.576c-.24 0-.432-.336-.576-1.008-.192-.672-.288-1.584-.288-2.736 0-2.256.264-4.056.792-5.4.528-1.392 1.128-2.088 1.8-2.088 3.312 0 6.024-.264 8.136-.792 2.16-.576 3.48-1.368 3.96-2.376-.336-1.68-1.536-3.552-3.6-5.616-2.016-2.112-5.736-5.088-11.16-8.928l3.168-12.168 35.784-15.552.072 8.928-32.4 13.464c4.992 3.168 10.128 6.912 15.408 11.232 4.128 3.36 7.392 5.856 9.792 7.488 2.4 1.632 4.56 2.76 6.48 3.384 1.92.624 4.056.936 6.408.936L166.326 79zm25.343-31.32c1.968 0 3.552.504 4.752 1.512 1.2.96 2.136 2.496 2.808 4.608.432 1.44.792 3.192 1.08 5.256.288 2.016.432 3.84.432 5.472 0 2.208-.456 4.464-1.368 6.768-.864 2.256-1.992 4.152-3.384 5.688-1.344 1.488-2.616 2.232-3.816 2.232-1.968 0-4.056-.336-6.264-1.008-2.16-.72-4.104-1.68-5.832-2.88-1.68-1.248-2.808-2.64-3.384-4.176-1.68 2.928-3.456 4.968-5.328 6.12-1.824 1.152-3.984 1.728-6.48 1.728-.24 0-.432-.336-.576-1.008-.192-.672-.288-1.584-.288-2.736 0-2.256.264-4.056.792-5.4.528-1.392 1.128-2.088 1.8-2.088 1.776 0 3.24-.192 4.392-.576 1.152-.432 2.208-1.176 3.168-2.232.96-1.104 1.968-2.664 3.024-4.68 1.728-3.36 3.264-5.928 4.608-7.704 1.344-1.776 2.76-3.024 4.248-3.744 1.536-.768 3.408-1.152 5.616-1.152zm-11.16 14.832c1.008 1.536 2.976 2.88 5.904 4.032 2.976 1.104 5.904 1.656 8.784 1.656.384 0 .576-.312.576-.936-.048-.864-.24-2.136-.576-3.816-.336-1.68-.696-3-1.08-3.96-.672-1.776-1.992-2.664-3.96-2.664-2.352 0-4.224.408-5.616 1.224-1.392.816-2.736 2.304-4.032 4.464zm30.463 17.136l-2.736-54.36 8.856-2.808-.72 56.088-5.4 1.08z" fill="#F9DB3E"/>
</svg>
