<svg fill="none" xmlns="http://www.w3.org/2000/svg" viewBox="0 0 261 173">
  <path d="M120.932 48c.048.108.072.246.072.414 0 .492-.144 1.026-.432 1.602-.276.588-.636 1.05-1.08 1.386-.672.528-1.602.954-2.79 1.278a13.169 13.169 0 01-3.6.504c-1.668 0-2.916-.348-3.744-1.044-.816-.696-1.224-1.686-1.224-2.97 0-1.332.372-3.132 1.116-5.4l1.044.306c-.42 1.584-.63 2.82-.63 3.708 0 .816.324 1.452.972 1.908.66.456 1.65.684 2.97.684 1.056 0 2.052-.09 2.988-.27.936-.18 1.698-.402 2.286-.666.588-.252.9-.468.936-.648-.048-.168-.222-.318-.522-.45-.288-.132-.78-.27-1.476-.414-.696-.144-1.674-.3-2.934-.468l.882-2.358c1.32.06 2.982.09 4.986.09h1.35L121.67 48h-.738zm4.714-7.704c.144.6.27 1.23.378 1.89.12.66.18 1.164.18 1.512 0 .456-.096.954-.288 1.494a5.777 5.777 0 01-.72 1.44c-.3.432-.618.732-.954.9-.636.312-1.614.468-2.934.468-.06 0-.108-.084-.144-.252a2.586 2.586 0 01-.072-.684c0-.564.066-1.014.198-1.35.132-.348.282-.522.45-.522.996 0 1.728-.042 2.196-.126.48-.084.768-.204.864-.36-.036-.3-.156-.774-.36-1.422a30.24 30.24 0 00-.666-1.926l1.872-1.062zm-.972-1.026a7.627 7.627 0 01-1.008-.666 7.613 7.613 0 01-.882-.774l1.26-1.62c.228.24.522.498.882.774s.696.498 1.008.666l-1.26 1.62zm9.973 8.73c-.312 1.428-1.002 2.49-2.07 3.186-.672.468-1.584.858-2.736 1.17a18.67 18.67 0 01-3.69.594c-.192-.168-.378-.42-.558-.756-.18-.324-.456-.87-.828-1.638 5.472-.36 8.43-1.254 8.874-2.682v-.072c-.948.12-1.968.18-3.06.18-.804 0-1.41-.198-1.818-.594-.408-.408-.612-.972-.612-1.692 0-.804.138-1.608.414-2.412.276-.804.66-1.464 1.152-1.98.492-.516 1.044-.774 1.656-.774.6 0 1.14.204 1.62.612.492.396.888.948 1.188 1.656.312.708.51 1.506.594 2.394h1.17L135.511 48h-.864zm-5.364-3.546c0 .276.132.492.396.648.264.144.66.216 1.188.216.9 0 1.71-.024 2.43-.072-.216-.768-.522-1.356-.918-1.764a1.932 1.932 0 00-1.44-.612c-.444 0-.834.168-1.17.504-.324.324-.486.684-.486 1.08zM145.942 48a4.704 4.704 0 01-1.71-.306c-.528-.216-1.11-.588-1.746-1.116-.624-.54-1.386-1.314-2.286-2.322a5.242 5.242 0 01-.666 1.926c-.324.552-.702.942-1.134 1.17-.78.432-1.866.648-3.258.648-.06 0-.108-.084-.144-.252a2.586 2.586 0 01-.072-.684c0-.564.066-1.014.198-1.35.132-.348.282-.522.45-.522.936 0 1.704-.066 2.304-.198.6-.144.972-.342 1.116-.594-.048-.396-.294-.894-.738-1.494s-1.266-1.482-2.466-2.646l.792-2.934 8.388-3.492.018 2.232-7.542 2.97 1.206 1.098 2.124 1.926c1.008.9 1.806 1.566 2.394 1.998.6.432 1.134.732 1.602.9.468.156 1.002.234 1.602.234L145.942 48zm14.249 0c-.72 0-1.308-.132-1.764-.396a2.105 2.105 0 01-.936-1.206c-.216.54-.492.942-.828 1.206a1.645 1.645 0 01-1.062.396c-.516 0-.948-.138-1.296-.414-.348-.288-.588-.672-.72-1.152-.492 1.044-1.284 1.566-2.376 1.566-.6 0-1.098-.15-1.494-.45-.384-.3-.63-.732-.738-1.296-.288.624-.702 1.074-1.242 1.35-.54.264-1.26.396-2.16.396-.06 0-.108-.084-.144-.252a2.586 2.586 0 01-.072-.684c0-.564.066-1.014.198-1.35.132-.348.282-.522.45-.522.936 0 1.632-.138 2.088-.414.456-.288.714-.744.774-1.368l.09-1.026 1.116-.09v1.116c0 .564.126 1.002.378 1.314.264.312.654.468 1.17.468.54 0 .954-.138 1.242-.414.3-.288.48-.684.54-1.188l.072-.954 1.116-.09v.882c0 .576.12 1.014.36 1.314.252.3.594.45 1.026.45.348 0 .612-.138.792-.414.18-.276.276-.714.288-1.314l.054-1.512 1.296-.198v1.332c0 .732.174 1.266.522 1.602.36.336.924.504 1.692.504L160.191 48zm6.328-7.83c.492 0 .888.126 1.188.378.3.24.534.624.702 1.152.108.36.198.798.27 1.314.072.504.108.96.108 1.368 0 .552-.114 1.116-.342 1.692a4.473 4.473 0 01-.846 1.422c-.336.372-.654.558-.954.558a5.385 5.385 0 01-1.566-.252 5.698 5.698 0 01-1.458-.72c-.42-.312-.702-.66-.846-1.044-.42.732-.864 1.242-1.332 1.53-.456.288-.996.432-1.62.432-.06 0-.108-.084-.144-.252a2.586 2.586 0 01-.072-.684c0-.564.066-1.014.198-1.35.132-.348.282-.522.45-.522.444 0 .81-.048 1.098-.144.288-.108.552-.294.792-.558.24-.276.492-.666.756-1.17.432-.84.816-1.482 1.152-1.926.336-.444.69-.756 1.062-.936.384-.192.852-.288 1.404-.288zm-2.79 3.708c.252.384.744.72 1.476 1.008a6.286 6.286 0 002.196.414c.096 0 .144-.078.144-.234a7.415 7.415 0 00-.144-.954 5.874 5.874 0 00-.27-.99c-.168-.444-.498-.666-.99-.666-.588 0-1.056.102-1.404.306-.348.204-.684.576-1.008 1.116zm12.656-4.752c.912.828 1.584 1.464 2.016 1.908.432.444.768.9 1.008 1.368.252.456.378.954.378 1.494 0 .732-.168 1.446-.504 2.142-.324.684-.732 1.182-1.224 1.494-.276.18-.612.318-1.008.414a4.955 4.955 0 01-1.206.144c-.828 0-1.458-.216-1.89-.648-.432-.444-.648-1.026-.648-1.746 0-.576.138-1.218.414-1.926.288-.72.756-1.554 1.404-2.502l-.918-.846 1.188-2.196.99.9zm-1.62 5.13c0 .66.516.99 1.548.99.552 0 1.056-.054 1.512-.162.456-.12.72-.252.792-.396-.036-.252-.204-.528-.504-.828-.288-.3-.78-.738-1.476-1.314l-.756-.648c-.744 1.068-1.116 1.854-1.116 2.358zm9.442-2.79c.492 1.908.738 3.378.738 4.41 0 1.092-.234 2.094-.702 3.006a5.517 5.517 0 01-2.016 2.214c-.636.42-1.416.792-2.34 1.116-.924.336-1.86.564-2.808.684a2.79 2.79 0 01-.558-.648c-.18-.276-.408-.666-.684-1.17l-.234-.396c2.46-.336 4.362-.822 5.706-1.458 1.344-.624 2.124-1.29 2.34-1.998-.024-.336-.168-.936-.432-1.8a54.906 54.906 0 00-.936-2.808l1.926-1.152zm-1.008-4.626a7.841 7.841 0 01-.882-.648c-.3-.252-.516-.474-.648-.666l1.116-1.44c.156.192.384.408.684.648.312.24.612.444.9.612l-1.17 1.494zm-1.584.036c.18.216.432.456.756.72.336.264.654.492.954.684l-1.17 1.53a7.535 7.535 0 01-.99-.666 6.396 6.396 0 01-.756-.738l1.206-1.53zm3.42 2.934a7.535 7.535 0 01-.99-.666 6.396 6.396 0 01-.756-.738l1.17-1.53c.168.216.426.456.774.72.348.264.69.492 1.026.684l-1.224 1.53zm5.093.72c.684 0 1.284.252 1.8.756.528.504.936 1.188 1.224 2.052.288.864.432 1.818.432 2.862 0 1.152-.192 2.148-.576 2.988a4.53 4.53 0 01-1.674 2.016c-.636.444-1.446.822-2.43 1.134-.972.312-2.004.516-3.096.612a2.382 2.382 0 01-.486-.684 25.57 25.57 0 01-.684-1.35l-.162-.324c2.508-.252 4.404-.606 5.688-1.062 1.284-.444 2.028-.996 2.232-1.656l-.018-.576c-.936.456-1.968.684-3.096.684-.768 0-1.356-.198-1.764-.594-.408-.408-.612-.972-.612-1.692 0-.804.138-1.608.414-2.412.276-.804.66-1.464 1.152-1.98.492-.516 1.044-.774 1.656-.774zm-2.088 3.924c0 .276.132.492.396.648.264.144.66.216 1.188.216.852 0 1.638-.102 2.358-.306-.216-.684-.522-1.212-.918-1.584a1.9 1.9 0 00-1.368-.558c-.444 0-.834.168-1.17.504-.324.324-.486.684-.486 1.08zM200.644 48c-.72 0-1.26-.18-1.62-.54-.18 1.488-.72 2.694-1.62 3.618-.9.924-2.106 1.536-3.618 1.836a4.058 4.058 0 01-.594-.738 87.9 87.9 0 01-.828-1.386c1.68-.396 2.97-.864 3.87-1.404.912-.528 1.446-1.086 1.602-1.674-.048-.912-.486-2.58-1.314-5.004l1.836-1.08c.24 1.056.462 1.824.666 2.304.204.48.456.81.756.99.3.18.732.27 1.296.27L200.644 48zm3.984-7.704c.144.6.27 1.23.378 1.89.12.66.18 1.164.18 1.512 0 .456-.096.954-.288 1.494a5.777 5.777 0 01-.72 1.44c-.3.432-.618.732-.954.9-.636.312-1.614.468-2.934.468-.06 0-.108-.084-.144-.252a2.586 2.586 0 01-.072-.684c0-.564.066-1.014.198-1.35.132-.348.282-.522.45-.522.996 0 1.728-.042 2.196-.126.48-.084.768-.204.864-.36-.036-.3-.156-.774-.36-1.422a30.24 30.24 0 00-.666-1.926l1.872-1.062zm-4.644 9.288c.18.216.432.45.756.702.324.264.642.492.954.684l-1.17 1.53a9.209 9.209 0 01-.99-.684c-.336-.252-.588-.486-.756-.702l1.206-1.53zm3.42 2.916a9.209 9.209 0 01-.99-.684c-.336-.252-.588-.486-.756-.702l1.17-1.53c.168.216.42.45.756.702.348.264.696.492 1.044.684l-1.224 1.53zm-1.26 2.79a5.208 5.208 0 01-.864-.63 4.305 4.305 0 01-.666-.666l1.134-1.44c.156.192.384.408.684.648.3.24.594.444.882.612l-1.17 1.476z" fill="#fff"/>
  <path d="M25.152 53.392c2.88 2.56 6.656 5.696 11.328 9.408 3.392 2.688 5.888 4.8 7.488 6.336 1.664 1.472 2.976 3.136 3.936 4.992.96 1.856 1.44 4 1.44 6.432 0 3.712-.864 7.584-2.592 11.616-1.728 3.968-3.84 6.912-6.336 8.832-2.624 2.048-6.048 3.712-10.272 4.992-4.16 1.28-8.352 1.92-12.576 1.92-8.32 0-12.48-4.288-12.48-12.864 0-2.944.224-6.656.672-11.136l5.376-.288V86.8c0 2.112.608 3.68 1.824 4.704 1.28.96 3.456 1.44 6.528 1.44 3.392 0 6.848-.384 10.368-1.152 3.584-.832 6.592-1.824 9.024-2.976 2.496-1.216 3.936-2.336 4.32-3.36-.064-1.152-.864-2.368-2.4-3.648-1.536-1.344-4-3.168-7.392-5.472-6.144-4.224-10.784-7.84-13.92-10.848l5.664-12.096zm37.838 51.072l-3.648-70.08L71.15 30.64l-.96 72.384-7.2 1.44zm32.456-33.312c2.624 10.176 3.936 18.016 3.936 23.52 0 5.824-1.248 11.168-3.744 16.032-2.496 4.928-6.08 8.864-10.752 11.808-3.392 2.24-7.552 4.224-12.48 5.952-4.928 1.792-9.92 3.008-14.976 3.648-1.024-.832-2.016-1.984-2.976-3.456s-2.176-3.552-3.648-6.24l-1.248-2.112c13.12-1.792 23.264-4.384 30.432-7.776 7.168-3.328 11.328-6.88 12.48-10.656-.128-1.792-.896-4.992-2.304-9.6-1.408-4.672-3.072-9.664-4.992-14.976l10.272-6.144zM92.47 62.32c-1.664-.896-3.456-2.08-5.376-3.552-1.92-1.472-3.488-2.848-4.704-4.128L89.11 46c1.216 1.28 2.784 2.656 4.704 4.128s3.712 2.656 5.376 3.552l-6.72 8.64zM137.03 106c-3.84 0-6.72-.96-8.64-2.88-.96 7.936-3.84 14.368-8.64 19.296-4.8 4.928-11.232 8.192-19.296 9.792-1.024-.96-2.08-2.272-3.168-3.936a468.805 468.805 0 01-4.416-7.392c8.96-2.112 15.84-4.608 20.64-7.488 4.864-2.816 7.712-5.792 8.544-8.928-.256-4.864-2.592-13.76-7.008-26.688l9.792-5.76c1.28 5.632 2.464 9.728 3.552 12.288 1.088 2.56 2.432 4.32 4.032 5.28s3.904 1.44 6.912 1.44L137.03 106zm44.383 0c.512 1.216.768 2.56.768 4.032 0 2.432-.832 5.152-2.496 8.16-1.6 3.072-3.456 5.248-5.568 6.528-1.728.96-3.808 1.728-6.24 2.304a32.38 32.38 0 01-7.488.864c-5.888 0-10.496-1.92-13.824-5.76-3.264-3.776-4.928-9.376-4.992-16.8-2.176.448-4.32.672-6.432.672-.32 0-.576-.448-.768-1.344-.256-.896-.384-2.112-.384-3.648 0-3.008.352-5.408 1.056-7.2.704-1.856 1.504-2.784 2.4-2.784 2.752 0 4.832-.032 6.24-.096 1.728-5.696 4.384-11.392 7.968-17.088 3.584-5.76 8-11.104 13.248-16.032l5.184-.48.672 6.048c.32 3.2.64 6.336.96 9.408.32 3.008.48 5.152.48 6.432 0 1.856-.416 3.904-1.248 6.144a24.339 24.339 0 01-3.36 6.048c2.56-.256 5.472-.384 8.736-.384h11.904L185.925 106h-4.512zm-33.696-.96c1.344 6.848 6.368 10.272 15.072 10.272 3.264 0 6.208-.352 8.832-1.056 2.688-.64 4.32-1.376 4.896-2.208-.192-1.984-1.44-3.712-3.744-5.184-2.304-1.472-5.696-2.208-10.176-2.208-5.312 0-10.272.128-14.88.384zm1.344-13.536c9.6-.704 14.88-2.624 15.84-5.76-.192-2.368-.928-7.424-2.208-15.168-3.072 2.688-5.792 5.888-8.16 9.6-2.368 3.648-4.192 7.424-5.472 11.328zm102.94-24.96a123.994 123.994 0 011.44 9.312c.384 3.264.576 6.048.576 8.352 0 3.776-.64 7.36-1.92 10.752-1.216 3.328-2.816 6.016-4.8 8.064-1.984 1.984-3.968 2.976-5.952 2.976-3.712 0-6.848-.8-9.408-2.4-2.56-1.6-4.224-3.712-4.992-6.336-1.28 2.944-3.04 5.152-5.28 6.624-2.176 1.408-4.704 2.112-7.584 2.112-3.2 0-5.856-.8-7.968-2.4-2.048-1.6-3.36-3.904-3.936-6.912-1.536 3.328-3.744 5.728-6.624 7.2-2.88 1.408-6.72 2.112-11.52 2.112-.32 0-.576-.448-.768-1.344-.256-.896-.384-2.112-.384-3.648 0-3.008.352-5.408 1.056-7.2.704-1.856 1.504-2.784 2.4-2.784 4.992 0 8.704-.736 11.136-2.208 2.432-1.536 3.808-3.968 4.128-7.296l.48-5.472 5.952-.48v5.952c0 3.008.672 5.344 2.016 7.008 1.408 1.664 3.488 2.496 6.24 2.496 2.88 0 5.088-.736 6.624-2.208 1.6-1.536 2.56-3.648 2.88-6.336l.384-5.088 5.952-.48v4.704c0 3.008 1.024 5.344 3.072 7.008 2.112 1.6 5.024 2.4 8.736 2.4 1.6 0 2.528-.48 2.784-1.44-.064-1.472-.544-3.904-1.44-7.296a154.537 154.537 0 00-2.976-10.464l9.696-5.28zm-26.784-16.8c-1.536-.96-3.104-2.112-4.704-3.456-1.6-1.344-2.752-2.528-3.456-3.552l5.952-7.68c.832 1.024 2.048 2.176 3.648 3.456 1.664 1.28 3.264 2.368 4.8 3.264l-6.24 7.968zm-8.448.192c.96 1.152 2.304 2.432 4.032 3.84 1.792 1.408 3.488 2.624 5.088 3.648l-6.24 8.16c-1.728-.96-3.488-2.144-5.28-3.552-1.728-1.472-3.072-2.784-4.032-3.936l6.432-8.16zm18.24 15.648c-1.728-.96-3.488-2.144-5.28-3.552-1.728-1.472-3.072-2.784-4.032-3.936l6.24-8.16c.896 1.152 2.272 2.432 4.128 3.84a50.77 50.77 0 005.472 3.648l-6.528 8.16z" fill="#F9DB3E"/>
</svg>
