<svg fill="none" xmlns="http://www.w3.org/2000/svg" viewBox="0 0 179 50">
  <rect x="36" width="40" height="40" rx="20" fill="#F9DB3E"/>
  <path d="M47.846 12.716c1.214 2.52 2.12 4.527 2.717 6.02a20.82 20.82 0 011.26 4.396c.783-.653 1.325-1.4 1.623-2.24.3-.84.449-1.876.449-3.108 0-1.139-.02-2.417-.056-3.836a108.082 108.082 0 00-.112-3.864L58.403 8.6l-.252 11.48c-.038 1.773.214 3.015.755 3.724.56.69 1.503 1.036 2.828 1.036L60.84 31c-1.904 0-3.38-.57-4.425-1.708-1.026-1.157-1.633-2.93-1.82-5.32l-.084-1.092a15.12 15.12 0 01-.363 2.044c-.15.672-.318 1.176-.505 1.512-.672 1.176-1.652 2.221-2.94 3.136a12.192 12.192 0 01-4.311 1.932c-.224-.15-.532-.504-.924-1.064a61.498 61.498 0 01-1.54-2.436l-.757-1.176c2.222-.635 4.051-1.26 5.488-1.876a27.237 27.237 0 00-1.511-3.472 214.396 214.396 0 00-2.605-4.844 72.994 72.994 0 01-1.596-2.856l3.669-3.612 1.231 2.548zM67.55 16.86c.243.952.448 1.96.616 3.024.187 1.045.28 1.904.28 2.576 0 .915-.196 1.923-.588 3.024a11.579 11.579 0 01-1.512 2.996c-.616.877-1.26 1.475-1.932 1.792-1.026.485-2.408.728-4.144.728-.112 0-.205-.187-.28-.56-.093-.392-.14-.915-.14-1.568 0-1.325.14-2.324.42-2.996.262-.69.56-1.036.896-1.036 2.52 0 3.958-.233 4.312-.7-.074-.616-.69-2.343-1.848-5.18l3.92-2.1zM56.574 32.82c.318.373.747.784 1.288 1.232a12.07 12.07 0 001.512 1.12l1.68-2.352c.336.41.831.859 1.484 1.344.672.504 1.298.896 1.876 1.176l-2.24 2.94a8.469 8.469 0 01-1.568-1.008c-.56-.43-1.036-.85-1.428-1.26l-1.624 2.268c-.54-.28-1.12-.663-1.736-1.148-.634-.485-1.129-.943-1.484-1.372l2.24-2.94zm20.07-15.54c1.138 0 2.165.41 3.08 1.232.914.803 1.633 1.96 2.156 3.472.522 1.512.784 3.276.784 5.292 0 2.147-.336 3.985-1.008 5.516-.672 1.53-1.69 2.716-3.052 3.556-1.12.672-2.539 1.232-4.256 1.68-1.699.448-3.556.737-5.572.868-.411-.467-.803-1.083-1.176-1.848-.392-.747-.887-1.82-1.484-3.22 4.386-.28 7.737-.71 10.052-1.288 2.314-.579 3.677-1.26 4.088-2.044l-.028-.84a12.062 12.062 0 01-5.208 1.176c-1.307 0-2.324-.373-3.052-1.12-.728-.747-1.092-1.773-1.092-3.08 0-1.325.242-2.716.728-4.172.485-1.475 1.166-2.707 2.044-3.696.896-.99 1.894-1.484 2.996-1.484zm-3.388 6.748c0 .71.793 1.064 2.38 1.064 1.344 0 2.548-.13 3.612-.392-.728-1.717-1.904-2.576-3.528-2.576-.43 0-.84.103-1.232.308a2.49 2.49 0 00-.896.728c-.224.299-.336.588-.336.868zm25.494 3.108c-.56-.28-1.194-.69-1.904-1.232-.709-.541-1.241-1.017-1.596-1.428l2.38-3.08c.355.41.887.887 1.596 1.428.71.541 1.344.952 1.904 1.232l-2.38 3.08zm8.792-9.24c.336 1.792.57 3.304.7 4.536.15 1.232.224 2.445.224 3.64 0 1.27-.158 2.51-.476 3.724-.317 1.213-.746 2.277-1.288 3.192-.522.915-1.082 1.596-1.68 2.044-.933.71-2.202 1.288-3.808 1.736a18.148 18.148 0 01-4.956.672c-2.52 0-4.433-.588-5.74-1.764-1.306-1.157-1.96-2.865-1.96-5.124 0-2.296.654-5.348 1.96-9.156l2.156.644c-.653 2.427-.98 4.265-.98 5.516 0 1.176.458 2.09 1.372 2.744.915.653 2.324.98 4.228.98 1.55 0 3.127-.187 4.732-.56 1.606-.373 2.744-.84 3.416-1.4.168-.168.252-.41.252-.728 0-.597-.214-1.69-.644-3.276a58.868 58.868 0 00-1.596-5.012l4.088-2.408zM117.722 31c-1.942 0-3.426-.541-4.452-1.624-1.008-1.101-1.578-2.828-1.708-5.18l-.252-3.556c-.336-5.693-.607-9.156-.812-10.388l4.76-1.652V10c0 3.565-.047 7.15-.14 10.752-.019 1.475.242 2.53.784 3.164.541.616 1.446.924 2.716.924l-.896 6.16zm17.136 0c-1.158 0-2.082-.28-2.772-.84-.672-.56-1.139-1.475-1.4-2.744-.299 1.213-.738 2.184-1.316 2.912-.56.728-1.12 1.092-1.68 1.092-.784 0-1.606-.14-2.464-.42a8.828 8.828 0 01-2.324-1.204c-.672-.523-1.148-1.092-1.428-1.708-.598 1.045-1.251 1.792-1.96 2.24-.691.448-1.475.672-2.352.672-.112 0-.206-.187-.28-.56-.094-.392-.14-.915-.14-1.568 0-1.325.14-2.324.42-2.996.261-.69.56-1.036.896-1.036.653 0 1.185-.065 1.596-.196.41-.15.774-.401 1.092-.756.336-.373.681-.924 1.036-1.652.952-1.923 1.95-3.276 2.996-4.06 1.064-.784 2.408-1.176 4.032-1.176.858 0 1.53.233 2.016.7.485.448.821 1.176 1.008 2.184.261 1.4.541 2.445.84 3.136.298.69.672 1.167 1.12 1.428.466.261 1.12.392 1.96.392l-.896 6.16zm-11.368-7.504c.448.448 1.241.868 2.38 1.26 1.138.373 2.212.56 3.22.56.093-.019.149-.093.168-.224.037-.13.056-.336.056-.616-.038-.933-.15-1.577-.336-1.932-.168-.373-.486-.56-.952-.56-1.251 0-2.212.121-2.884.364a3.454 3.454 0 00-1.652 1.148zm18.587-6.636c.243.952.448 1.96.616 3.024.187 1.045.28 1.904.28 2.576 0 .915-.196 1.923-.588 3.024a11.56 11.56 0 01-1.512 2.996c-.616.877-1.26 1.475-1.932 1.792-.56.261-1.222.448-1.988.56-.746.112-1.633.168-2.66.168-.112 0-.205-.187-.28-.56-.093-.392-.14-.915-.14-1.568 0-1.325.14-2.324.42-2.996.262-.69.56-1.036.896-1.036 1.55 0 2.698-.056 3.444-.168.747-.112 1.204-.29 1.372-.532-.074-.616-.69-2.343-1.848-5.18l3.92-2.1zm-5.768-6.496c.318.373.738.784 1.26 1.232.542.448 1.055.821 1.54 1.12l1.68-2.352c.336.41.831.868 1.484 1.372a12.79 12.79 0 001.876 1.148l-2.24 2.94a9.282 9.282 0 01-1.596-1.008c-.541-.43-1.008-.85-1.4-1.26l-1.624 2.268a12.19 12.19 0 01-1.764-1.148c-.616-.485-1.101-.943-1.456-1.372l2.24-2.94zm13.606 8.708c.803 3.173 1.204 5.721 1.204 7.644 0 2.035-.41 3.855-1.232 5.46a9.084 9.084 0 01-3.528 3.836c-1.045.653-2.296 1.223-3.752 1.708a22.508 22.508 0 01-4.396 1.064 10.534 10.534 0 01-1.288-1.764 61.79 61.79 0 01-1.652-2.884c4.051-.597 7.168-1.325 9.352-2.184 2.203-.859 3.463-1.764 3.78-2.716-.056-.485-.326-1.437-.812-2.856a93.02 93.02 0 00-1.764-4.9l4.088-2.408zM160.38 31c-1.941 0-3.425-.541-4.452-1.624-1.008-1.101-1.577-2.828-1.708-5.18l-.252-3.556c-.336-5.693-.607-9.156-.812-10.388l4.76-1.652V10c0 3.565-.047 7.15-.14 10.752-.019 1.475.243 2.53.784 3.164.541.616 1.447.924 2.716.924L160.38 31zm7.224-14.14c.243.952.448 1.96.616 3.024.187 1.045.28 1.904.28 2.576 0 .915-.196 1.923-.588 3.024a11.56 11.56 0 01-1.512 2.996c-.616.877-1.26 1.475-1.932 1.792-.56.261-1.222.448-1.988.56-.746.112-1.633.168-2.66.168-.112 0-.205-.187-.28-.56-.093-.392-.14-.915-.14-1.568 0-1.325.14-2.324.42-2.996.262-.69.56-1.036.896-1.036 1.55 0 2.698-.056 3.444-.168.747-.112 1.204-.29 1.372-.532-.074-.616-.69-2.343-1.848-5.18l3.92-2.1zm-8.26 15.96c.318.373.747.784 1.288 1.232.523.448 1.027.821 1.512 1.12l1.68-2.352c.336.41.831.859 1.484 1.344.672.504 1.298.896 1.876 1.176l-2.24 2.94a9.282 9.282 0 01-1.596-1.008c-.541-.43-1.008-.85-1.4-1.26l-1.624 2.268c-.541-.28-1.12-.663-1.736-1.148-.634-.485-1.129-.943-1.484-1.372l2.24-2.94zm3.5 10.22c-.448-.224-.952-.57-1.512-1.036-.56-.467-.942-.868-1.148-1.204l1.96-2.66c.262.336.682.71 1.26 1.12.579.43 1.092.756 1.54.98l-2.1 2.8zm9.272-11.704l-1.568-17.948 4.76-1.484-.56 18.9-2.632.532zm6.132-22.54c-.728.43-1.578.756-2.548.98-.971.224-1.914.336-2.828.336-1.531 0-2.838-.29-3.92-.868l-.924 2.38-1.68-1.26 1.456-3.108c.28-.616.569-1.036.868-1.26.28-.243.606-.364.98-.364.28 0 .625.075 1.036.224.522.15 1.008.27 1.456.364.466.075 1.073.112 1.82.112.653 0 1.39-.065 2.212-.196a11.44 11.44 0 002.24-.616l-.168 3.276z" fill="#000"/>
</svg>
